<svg xmlns="http://www.w3.org/2000/svg" viewBox="0 0 520 240" role="img" aria-labelledby="t"><title id="t">An opening sunrise above a gently winding path</title><path fill="#F8BF83" d="M64 172a126 126 0 0 1 252 0Z"/><path fill="#FCE4CD" d="M100 172a90 90 0 0 1 180 0Z"/><path d="M190 53V32M111 77 95 61M269 77l16-16M82 128l-23-7M299 128l23-7" stroke="#A13E24" stroke-width="4" stroke-linecap="round"/><path d="M19 205c75-25 92 17 171 0s86-46 166-19 103 14 143 0" fill="none" stroke="#315B4C" stroke-width="5" stroke-linecap="round"/><rect x="344" y="57" width="104" height="124" rx="17" transform="rotate(9 396 119)" fill="#FFFFFF" stroke="#967D6A" stroke-width="2"/><path d="m362 87 61 10m-66 17 61 10m-66 17 37 6" stroke="#967D6A" stroke-width="3" stroke-linecap="round"/><path d="M466 186c-33-35-33-62-12-82 31 23 35 48 12 82Z" fill="#AAC5A7"/><path d="m466 185-10-54" stroke="#315B4C" stroke-width="3"/><circle cx="39" cy="146" r="8" fill="#A13E24"/></svg>
